<mxfile host="app.diagrams.net" modified="2020-10-11T05:14:39.515Z" agent="5.0 (Macintosh; Intel Mac OS X 10_14_6) AppleWebKit/537.36 (KHTML, like Gecko) Chrome/86.0.4240.75 Safari/537.36" etag="mUBhAiFyEdIgLnfnzq27" version="13.7.9" type="github">
  <diagram name="Page-1" id="74e2e168-ea6b-b213-b513-2b3c1d86103e">
    <mxGraphModel dx="1310" dy="703" grid="1" gridSize="10" guides="1" tooltips="1" connect="1" arrows="1" fold="1" page="1" pageScale="1" pageWidth="1100" pageHeight="850" background="#ffffff" math="0" shadow="0">
      <root>
        <mxCell id="0" />
        <mxCell id="1" parent="0" />
        <mxCell id="wDaYN3qzEo_pGd24imDA-28" style="edgeStyle=orthogonalEdgeStyle;rounded=0;orthogonalLoop=1;jettySize=auto;html=1;entryX=1;entryY=0.5;entryDx=0;entryDy=0;" edge="1" parent="1" source="wDaYN3qzEo_pGd24imDA-21" target="wDaYN3qzEo_pGd24imDA-24">
          <mxGeometry relative="1" as="geometry">
            <Array as="points">
              <mxPoint x="577.5" y="660" />
            </Array>
          </mxGeometry>
        </mxCell>
        <mxCell id="wDaYN3qzEo_pGd24imDA-27" value="" style="edgeStyle=orthogonalEdgeStyle;rounded=0;orthogonalLoop=1;jettySize=auto;html=1;" edge="1" parent="1" source="wDaYN3qzEo_pGd24imDA-24" target="wDaYN3qzEo_pGd24imDA-26">
          <mxGeometry relative="1" as="geometry" />
        </mxCell>
        <mxCell id="wDaYN3qzEo_pGd24imDA-24" value="Calculate session duration based on presentation length" style="whiteSpace=wrap;html=1;strokeWidth=2;" vertex="1" parent="1">
          <mxGeometry x="297.5" y="630" width="120" height="60" as="geometry" />
        </mxCell>
        <mxCell id="wDaYN3qzEo_pGd24imDA-25" value="" style="edgeStyle=orthogonalEdgeStyle;rounded=0;orthogonalLoop=1;jettySize=auto;html=1;" edge="1" parent="1" source="wDaYN3qzEo_pGd24imDA-19" target="wDaYN3qzEo_pGd24imDA-24">
          <mxGeometry relative="1" as="geometry" />
        </mxCell>
        <mxCell id="wDaYN3qzEo_pGd24imDA-29" style="edgeStyle=orthogonalEdgeStyle;rounded=0;orthogonalLoop=1;jettySize=auto;html=1;exitX=1;exitY=0.5;exitDx=0;exitDy=0;" edge="1" parent="1" source="wDaYN3qzEo_pGd24imDA-26">
          <mxGeometry relative="1" as="geometry">
            <mxPoint x="697.5" y="336" as="targetPoint" />
            <Array as="points">
              <mxPoint x="697.5" y="760" />
            </Array>
          </mxGeometry>
        </mxCell>
        <mxCell id="wDaYN3qzEo_pGd24imDA-26" value="Write paper for each session created" style="whiteSpace=wrap;html=1;strokeWidth=2;" vertex="1" parent="1">
          <mxGeometry x="297.5" y="730" width="120" height="60" as="geometry" />
        </mxCell>
        <mxCell id="77e6c97f196da883-1" value="Proceeding Creation" style="swimlane;html=1;childLayout=stackLayout;startSize=20;rounded=0;shadow=0;labelBackgroundColor=none;strokeWidth=1;fontFamily=Verdana;fontSize=8;align=center;" parent="1" vertex="1">
          <mxGeometry x="240" y="80" width="800" height="740" as="geometry" />
        </mxCell>
        <mxCell id="77e6c97f196da883-2" value="Controller" style="swimlane;html=1;startSize=20;" parent="77e6c97f196da883-1" vertex="1">
          <mxGeometry y="20" width="800" height="720" as="geometry" />
        </mxCell>
        <mxCell id="wDaYN3qzEo_pGd24imDA-11" value="is paper has PDF extension?" style="rhombus;whiteSpace=wrap;html=1;strokeWidth=2;" vertex="1" parent="77e6c97f196da883-2">
          <mxGeometry x="47.5" y="320" width="140" height="80" as="geometry" />
        </mxCell>
        <mxCell id="wDaYN3qzEo_pGd24imDA-3" value="" style="edgeStyle=orthogonalEdgeStyle;rounded=0;orthogonalLoop=1;jettySize=auto;html=1;entryX=0.93;entryY=0.5;entryDx=0;entryDy=0;entryPerimeter=0;" edge="1" parent="77e6c97f196da883-2" source="wDaYN3qzEo_pGd24imDA-1" target="wDaYN3qzEo_pGd24imDA-6">
          <mxGeometry relative="1" as="geometry">
            <mxPoint x="117.5" y="-40" as="targetPoint" />
          </mxGeometry>
        </mxCell>
        <mxCell id="wDaYN3qzEo_pGd24imDA-5" value="" style="edgeStyle=orthogonalEdgeStyle;rounded=0;orthogonalLoop=1;jettySize=auto;html=1;exitX=0;exitY=0.5;exitDx=0;exitDy=0;exitPerimeter=0;" edge="1" parent="77e6c97f196da883-2" source="wDaYN3qzEo_pGd24imDA-6" target="wDaYN3qzEo_pGd24imDA-4">
          <mxGeometry relative="1" as="geometry">
            <mxPoint x="117.5" y="20" as="sourcePoint" />
          </mxGeometry>
        </mxCell>
        <mxCell id="wDaYN3qzEo_pGd24imDA-8" value="" style="edgeStyle=orthogonalEdgeStyle;rounded=0;orthogonalLoop=1;jettySize=auto;html=1;" edge="1" parent="77e6c97f196da883-2" source="wDaYN3qzEo_pGd24imDA-4" target="wDaYN3qzEo_pGd24imDA-7">
          <mxGeometry relative="1" as="geometry" />
        </mxCell>
        <mxCell id="wDaYN3qzEo_pGd24imDA-12" value="Yes" style="edgeStyle=orthogonalEdgeStyle;rounded=0;orthogonalLoop=1;jettySize=auto;html=1;" edge="1" parent="77e6c97f196da883-2" source="wDaYN3qzEo_pGd24imDA-7" target="wDaYN3qzEo_pGd24imDA-11">
          <mxGeometry relative="1" as="geometry" />
        </mxCell>
        <mxCell id="wDaYN3qzEo_pGd24imDA-7" value="while index &amp;lt; sum of papers" style="rhombus;whiteSpace=wrap;html=1;strokeWidth=2;" vertex="1" parent="77e6c97f196da883-2">
          <mxGeometry x="32.5" y="190" width="170" height="90" as="geometry" />
        </mxCell>
        <mxCell id="wDaYN3qzEo_pGd24imDA-18" value="" style="edgeStyle=orthogonalEdgeStyle;rounded=0;orthogonalLoop=1;jettySize=auto;html=1;" edge="1" parent="77e6c97f196da883-2" source="wDaYN3qzEo_pGd24imDA-15" target="wDaYN3qzEo_pGd24imDA-17">
          <mxGeometry relative="1" as="geometry" />
        </mxCell>
        <mxCell id="wDaYN3qzEo_pGd24imDA-14" value="No" style="edgeStyle=orthogonalEdgeStyle;rounded=0;orthogonalLoop=1;jettySize=auto;html=1;" edge="1" parent="77e6c97f196da883-2" source="wDaYN3qzEo_pGd24imDA-7" target="wDaYN3qzEo_pGd24imDA-13">
          <mxGeometry relative="1" as="geometry" />
        </mxCell>
        <mxCell id="wDaYN3qzEo_pGd24imDA-16" value="" style="edgeStyle=orthogonalEdgeStyle;rounded=0;orthogonalLoop=1;jettySize=auto;html=1;" edge="1" parent="77e6c97f196da883-2" source="wDaYN3qzEo_pGd24imDA-13" target="wDaYN3qzEo_pGd24imDA-15">
          <mxGeometry relative="1" as="geometry" />
        </mxCell>
        <mxCell id="wDaYN3qzEo_pGd24imDA-19" value="Count page numbers pdf" style="whiteSpace=wrap;html=1;strokeWidth=2;" vertex="1" parent="77e6c97f196da883-2">
          <mxGeometry x="57.5" y="435" width="120" height="60" as="geometry" />
        </mxCell>
        <mxCell id="wDaYN3qzEo_pGd24imDA-4" value="Write Conference Details" style="whiteSpace=wrap;html=1;strokeWidth=2;" vertex="1" parent="77e6c97f196da883-2">
          <mxGeometry x="57.5" y="90" width="120" height="60" as="geometry" />
        </mxCell>
        <mxCell id="wDaYN3qzEo_pGd24imDA-21" value="Count page numbers docx" style="whiteSpace=wrap;html=1;strokeWidth=2;" vertex="1" parent="77e6c97f196da883-2">
          <mxGeometry x="257.5" y="330" width="120" height="60" as="geometry" />
        </mxCell>
        <mxCell id="wDaYN3qzEo_pGd24imDA-6" value="&lt;span&gt;Conference Session,&lt;/span&gt;&lt;br&gt;&lt;span&gt;Accepted Papers,&lt;/span&gt;&lt;br&gt;&lt;span&gt;Conference Managers,&lt;/span&gt;&lt;br&gt;&lt;span&gt;Conference Details&lt;/span&gt;" style="strokeWidth=2;html=1;shape=mxgraph.flowchart.stored_data;whiteSpace=wrap;" vertex="1" parent="77e6c97f196da883-2">
          <mxGeometry x="307.5" y="60" width="130" height="120" as="geometry" />
        </mxCell>
        <mxCell id="wDaYN3qzEo_pGd24imDA-22" value="No" style="edgeStyle=orthogonalEdgeStyle;rounded=0;orthogonalLoop=1;jettySize=auto;html=1;" edge="1" parent="77e6c97f196da883-2" source="wDaYN3qzEo_pGd24imDA-11" target="wDaYN3qzEo_pGd24imDA-21">
          <mxGeometry relative="1" as="geometry" />
        </mxCell>
        <mxCell id="wDaYN3qzEo_pGd24imDA-20" value="Yes" style="edgeStyle=orthogonalEdgeStyle;rounded=0;orthogonalLoop=1;jettySize=auto;html=1;" edge="1" parent="77e6c97f196da883-2" source="wDaYN3qzEo_pGd24imDA-11" target="wDaYN3qzEo_pGd24imDA-19">
          <mxGeometry relative="1" as="geometry" />
        </mxCell>
        <mxCell id="wDaYN3qzEo_pGd24imDA-15" value="create file header content type:&lt;br&gt;application/vnd.openxmlformats-officedocument.wordprocessingml.document" style="whiteSpace=wrap;html=1;strokeWidth=2;" vertex="1" parent="77e6c97f196da883-2">
          <mxGeometry x="517.5" y="410" width="250" height="85" as="geometry" />
        </mxCell>
        <mxCell id="wDaYN3qzEo_pGd24imDA-17" value="save and finish" style="ellipse;whiteSpace=wrap;html=1;strokeWidth=2;" vertex="1" parent="77e6c97f196da883-2">
          <mxGeometry x="582.5" y="530" width="120" height="60" as="geometry" />
        </mxCell>
        <mxCell id="wDaYN3qzEo_pGd24imDA-13" value="Commit Writer with Word2007 phpWord library" style="whiteSpace=wrap;html=1;strokeWidth=2;" vertex="1" parent="77e6c97f196da883-2">
          <mxGeometry x="582.5" y="206" width="120" height="60" as="geometry" />
        </mxCell>
        <mxCell id="wDaYN3qzEo_pGd24imDA-1" value="start" style="strokeWidth=2;html=1;shape=mxgraph.flowchart.start_1;whiteSpace=wrap;" vertex="1" parent="77e6c97f196da883-2">
          <mxGeometry x="592.5" y="90" width="100" height="60" as="geometry" />
        </mxCell>
      </root>
    </mxGraphModel>
  </diagram>
</mxfile>
